<svg width="128" height="128" xmlns="http://www.w3.org/2000/svg">
  <!-- 背景 -->
  <rect width="128" height="128" fill="#2d1b0e"/>

  <!-- 像素风格悟空头像 -->
  <!-- 脸部 -->
  <rect x="32" y="24" width="64" height="56" fill="#ffd699"/>

  <!-- 头发 -->
  <rect x="24" y="16" width="80" height="16" fill="#1a1a1a"/>
  <rect x="32" y="8" width="16" height="8" fill="#1a1a1a"/>
  <rect x="56" y="8" width="16" height="8" fill="#1a1a1a"/>
  <rect x="80" y="8" width="16" height="8" fill="#1a1a1a"/>

  <!-- 金箍 -->
  <rect x="24" y="24" width="80" height="8" fill="#ffd700"/>

  <!-- 眼睛 -->
  <rect x="40" y="48" width="8" height="8" fill="#ff4500"/>
  <rect x="72" y="48" width="8" height="8" fill="#ff4500"/>
  <rect x="40" y="48" width="4" height="4" fill="#ffff00"/>
  <rect x="72" y="48" width="4" height="4" fill="#ffff00"/>

  <!-- 嘴巴 -->
  <rect x="52" y="64" width="24" height="8" fill="#cc6633"/>

  <!-- 耳朵 -->
  <rect x="16" y="40" width="8" height="16" fill="#ffd699"/>
  <rect x="104" y="40" width="8" height="16" fill="#ffd699"/>

  <!-- 底部装饰 -->
  <rect x="40" y="88" width="48" height="32" fill="#8b4513"/>
  <rect x="48" y="96" width="32" height="8" fill="#ffd700"/>
</svg>
